<?xml version="1.0" encoding="UTF-8" standalone="no"?>
<svg
   height="16px"
   viewBox="0 0 16 16"
   width="16px"
   version="1.1"
   id="svg14"
   xmlns="http://www.w3.org/2000/svg"
   xmlns:svg="http://www.w3.org/2000/svg">
  <defs
     id="defs14" />
  <filter
     id="a"
     height="1"
     width="1"
     x="0"
     y="0">
    <feColorMatrix
       color-interpolation-filters="sRGB"
       values="0 0 0 0 1 0 0 0 0 1 0 0 0 0 1 0 0 0 1 0"
       id="feColorMatrix1" />
  </filter>
  <mask
     id="b">
    <g
       filter="url(#a)"
       id="g1">
      <path
         d="m -1.6 -1.6 h 19.2 v 19.2 h -19.2 z"
         fill-opacity="0.5"
         id="path1" />
    </g>
  </mask>
  <clipPath
     id="c">
    <path
       d="m 0 0 h 1600 v 1200 h -1600 z"
       id="path2" />
  </clipPath>
  <mask
     id="d">
    <g
       filter="url(#a)"
       id="g3">
      <path
         d="m -1.6 -1.6 h 19.2 v 19.2 h -19.2 z"
         fill-opacity="0.7"
         id="path3" />
    </g>
  </mask>
  <clipPath
     id="e">
    <path
       d="m 0 0 h 1600 v 1200 h -1600 z"
       id="path4" />
  </clipPath>
  <mask
     id="f">
    <g
       filter="url(#a)"
       id="g5">
      <path
         d="m -1.6 -1.6 h 19.2 v 19.2 h -19.2 z"
         fill-opacity="0.35"
         id="path5" />
    </g>
  </mask>
  <clipPath
     id="g">
    <path
       d="m 0 0 h 1600 v 1200 h -1600 z"
       id="path6" />
  </clipPath>
  <path
     d="m 8 0 c -4.40625 0 -8 3.59375 -8 8 s 3.59375 8 8 8 s 8 -3.59375 8 -8 s -3.59375 -8 -8 -8 z m 0 2 c 3.324219 0 6 2.675781 6 6 s -2.675781 6 -6 6 s -6 -2.675781 -6 -6 s 2.675781 -6 6 -6 z m 0 0"
     fill="#222222"
     id="path7" />
  <g
     mask="url(#b)"
     id="g10">
    <g
       clip-path="url(#c)"
       transform="matrix(1 0 0 1 -600 -380)"
       id="g9">
      <path
         d="m 550 182 c -0.351562 0.003906 -0.695312 0.101562 -1 0.28125 v 3.4375 c 0.304688 0.179688 0.648438 0.277344 1 0.28125 c 1.105469 0 2 -0.894531 2 -2 s -0.894531 -2 -2 -2 z m 0 5 c -0.339844 0 -0.679688 0.058594 -1 0.175781 v 6.824219 h 4 v -4 c 0 -1.65625 -1.34375 -3 -3 -3 z m 0 0"
         id="path9" />
    </g>
  </g>
  <g
     mask="url(#d)"
     id="g12">
    <g
       clip-path="url(#e)"
       transform="matrix(1 0 0 1 -600 -380)"
       id="g11">
      <path
         d="m 569 182 v 4 c 1.105469 0 2 -0.894531 2 -2 s -0.894531 -2 -2 -2 z m 0 5 v 7 h 3 v -4 c 0 -1.65625 -1.34375 -3 -3 -3 z m 0 0"
         id="path10" />
    </g>
  </g>
  <g
     mask="url(#f)"
     id="g14">
    <g
       clip-path="url(#g)"
       transform="matrix(1 0 0 1 -600 -380)"
       id="g13">
      <path
         d="m 573 182.269531 v 3.449219 c 0.613281 -0.355469 0.996094 -1.007812 1 -1.71875 c 0 -0.714844 -0.382812 -1.375 -1 -1.730469 z m 0 4.90625 v 6.824219 h 2 v -4 c 0 -1.269531 -0.800781 -2.402344 -2 -2.824219 z m 0 0"
         id="path12" />
    </g>
  </g>
  <path
     d="M 5.1769766,11.589768 H 11.389358 V 10.788171 H 6.045374 L 6.1789736,11.066503 11.244625,4.4421899 V 3.8632583 H 5.3328428 V 4.6648559 H 10.365094 L 10.231495,4.3865234 5.1769766,10.999704 Z"
     id="text14"
     style="-inkscape-font-specification:Cantarell;fill:#222222;stroke-width:0.929232;stroke-linecap:round;stroke-linejoin:round"
     transform="scale(0.96581413,1.0353959)"
     aria-label="Z" />
  <path
     id="path14"
     style="fill:#222222;stroke-width:1.00157;stroke-linecap:round;stroke-linejoin:round"
     d="M 9,8 A 1,1 0 0 1 8.0059473,8.9999823 1,1 0 0 1 7.0000707,8.0118943 1,1 0 0 1 7.982159,7.0001592 1,1 0 0 1 8.9997171,7.976213" />
</svg>
